<svg xmlns="http://www.w3.org/2000/svg" width="84.397591mm" height="28.397432mm" viewBox="0 0 84.397591 28.397432" version="1.1">
  <g transform="translate(-55.308324,-32.214492)">
    <path d="m 91.281553,53.742042 h 0.91548 q 0.241586,0 0.440787,0.05616 0.199202,0.05148 0.339067,0.16381 0.139866,0.112328 0.216155,0.285499 0.07629,0.173172 0.07629,0.416546 0,0.248057 -0.08477,0.425908 -0.08053,0.177852 -0.22887,0.290179 -0.144104,0.112327 -0.347544,0.168491 -0.199202,0.05148 -0.43231,0.05148 h -0.474694 v 1.455574 h -0.419595 z m 0.419595,1.464934 h 0.445025 q 0.15258,0 0.279731,-0.02808 0.131388,-0.03276 0.224632,-0.09361 0.09324,-0.06552 0.144102,-0.168491 0.05086,-0.102969 0.05086,-0.252737 0,-0.149768 -0.0551,-0.248055 -0.05087,-0.102969 -0.144102,-0.163811 -0.089,-0.06552 -0.216155,-0.08892 -0.127151,-0.02808 -0.275493,-0.02808 h -0.453501 z m 5.927604,1.436852 h 1.339314 v 0.411867 h -1.758908 v -3.313653 h 0.419594 z m 5.274918,0.411867 h -0.46623 l 1.30117,-3.313653 h 0.38146 l 1.28845,3.313653 h -0.47469 l -0.30517,-0.814373 h -1.42407 z m 0.44925,-1.221559 h 1.12317 l -0.55947,-1.553859 z m 7.96202,0.556956 h 0.008 v -2.64905 h 0.41959 v 3.313653 h -0.52978 l -1.58514,-2.705214 h -0.008 v 2.705214 h -0.41959 v -3.313653 h 0.54674 z m 4.98245,0.252736 h 1.56818 v 0.411867 h -1.98778 v -3.313653 h 1.92421 v 0.407186 h -1.50461 v 0.992223 h 1.4156 v 0.397826 h -1.4156 z M 84.871681,50.026527 q 0,0.1016 -0.0762,0.2286 -0.0762,0.1524 -0.2032,0.2794 -0.127,0.127 -0.2794,0.2032 -0.127,0.1016 -0.2794,0.1016 H 59.217682 q -0.5588,0 -0.5588,-0.2032 0,-0.2286 0.4064,-0.5588 0.4064,-0.3556 0.9906,-0.3556 0.0762,0 1.1176,0 1.0668,0 2.6416,0 1.5748,-0.0254 3.403599,-0.0254 1.8542,-0.0254 3.5052,-0.0254 1.6764,-0.0254 2.8956,-0.0254 1.2192,0 1.5494,0 0.5334,0 1.3208,-0.127 0.7874,-0.1524 1.524,-0.4826 0.7366,-0.3556 1.2446,-0.889 0.5334,-0.5588 0.5334,-1.3462 0,-0.9398 -0.8636,-1.7272 -0.8636,-0.7874 -2.286,-1.4224 -1.4224,-0.6604 -3.2512,-1.2192 -1.8034,-0.5588 -3.7084,-1.0414 -1.8796,-0.508 -3.7084,-0.9652 -1.803399,-0.4572 -3.225799,-0.9144 -1.4224,-0.4826 -2.286,-0.9906 -0.8636,-0.507999 -0.8636,-1.092199 0,-0.2794 0.381,-0.7366 0.4064,-0.4826 1.3462,-1.016 0.9398,-0.5334 2.4892,-1.0668 1.5494,-0.5588 3.835399,-0.9906 2.286,-0.4318 5.3848,-0.7112 3.1242,-0.2794 7.1882,-0.2794 1.1684,0 1.905,0.127 0.762,0.1016 1.1938,0.2794 0.4572,0.1524 0.6096,0.3556 0.1778,0.1778 0.1778,0.3048 0,0.1778 -0.2286,0.3048 -0.2286,0.1016 -0.5334,0.1778 -0.3048,0.0508 -0.6096,0.0762 -0.2794,0 -0.4318,0 -0.127,0 -0.2032,-0.0254 -0.0762,-0.0508 -0.0762,-0.2032 0,-0.127 -0.2032,-0.2032 -0.1778,-0.1016 -0.6604,-0.1524 -0.4572,-0.0762 -1.27,-0.1016 -0.7874,-0.0508 -2.032,-0.0508 -4.4958,0 -7.7216,0.3556 -3.2258,0.3556 -5.333999,0.8636 -2.0828,0.4826 -3.0734,1.0414 -0.9906,0.5588 -0.9906,0.9398 0,0.5334 0.8636,1.016 0.8636,0.4572 2.286,0.939799 1.4224,0.4572 3.225799,0.9398 1.8034,0.4826 3.683,0.9906 1.905,0.508 3.7084,1.0922 1.8034,0.5842 3.2258,1.27 1.4224,0.6858 2.286,1.4986 0.8636,0.8128 0.8636,1.778 0,0.762 -0.4064,1.3462 -0.381,0.5588 -0.9398,0.9906 -0.5588,0.4318 -1.1938,0.7112 -0.635,0.2794 -1.1176,0.4826 1.0414,0 2.0574,0.0254 0.889,0.0254 1.8542,0.0254 0.9906,0 1.778,0 0.5334,0 0.9144,0 0.4064,-0.0254 0.5334,-0.0254 0.508,0 0.508,0.2286 z m 6.222997,-6.2738 q 0,0.1778 -0.1016,0.4064 -0.1016,0.2032 -0.254,0.4064 -0.1524,0.1778 -0.3556,0.3048 -0.1778,0.127 -0.381,0.127 -0.4572,0 -0.4572,-0.4064 0,-0.1778 0.1016,-0.381 0.1016,-0.2286 0.254,-0.4064 0.1524,-0.2032 0.3556,-0.3302 0.2032,-0.127 0.381,-0.127 0.4572,0 0.4572,0.4064 z m 1.6002,5.0038 q 0,0.1016 -0.0762,0.1524 l -1.143,0.4572 q -0.254,0.1016 -0.6604,0.2794 -0.381,0.1524 -0.8382,0.3048 -0.4572,0.1524 -0.889,0.2794 -0.4318,0.1016 -0.762,0.1016 -0.3302,0 -0.5334,-0.127 -0.1778,-0.1524 -0.3048,-0.3302 -0.1016,-0.1778 -0.1524,-0.3556 -0.0254,-0.1778 -0.0254,-0.2794 0,-0.3302 0.127,-0.5842 0.127,-0.2794 0.2032,-0.4064 -0.4064,0.254 -0.7874,0.4572 -0.3556,0.1778 -0.508,0.2286 -0.1778,0.0762 -0.4064,0.1524 -0.2032,0.0762 -0.4318,0.1778 -0.0508,0 -0.0762,-0.0508 -0.0508,-0.0762 -0.0508,-0.127 0,-0.1016 0.0508,-0.127 0.2032,-0.0762 0.381,-0.1524 0.2032,-0.0762 0.3556,-0.1524 0.5842,-0.2794 1.016,-0.5588 0.508,-0.3048 0.7366,-0.5334 0.254,-0.254 0.3302,-0.4572 0.0762,-0.2032 0.1524,-0.3048 0.0762,-0.127 0.2032,-0.127 0.1778,0 0.3048,0.1016 0.1524,0.0762 0.1524,0.2794 0,0.0762 -0.0762,0.2032 -0.0508,0.0762 -0.1778,0.2794 -0.127,0.1778 -0.254,0.4318 -0.1016,0.2286 -0.2032,0.508 -0.0762,0.2794 -0.0762,0.5334 0,0.2794 0.2032,0.4826 0.2032,0.2032 0.635,0.2032 0.2794,0 0.6096,-0.0762 0.3556,-0.1016 0.6858,-0.2032 0.3556,-0.127 0.635,-0.2286 0.3048,-0.127 0.4572,-0.1778 0.508,-0.2032 0.762,-0.3048 0.1524,-0.0762 0.3048,-0.127 0.0508,0 0.0762,0.0762 0.0508,0.0508 0.0508,0.1016 z m 10.185392,0 q 0,0.1016 -0.0762,0.1524 l -1.143,0.4572 q -0.254,0.1016 -0.6604,0.2794 -0.381,0.1524 -0.8382,0.3048 -0.457204,0.1524 -0.889004,0.2794 -0.4318,0.1016 -0.762,0.1016 -0.4826,0 -0.6604,-0.1778 -0.1778,-0.2032 -0.1778,-0.4826 0,-0.2794 0.1016,-0.5842 0.127,-0.3302 0.254,-0.6096 0.1524,-0.3048 0.254,-0.508 0.127,-0.2286 0.127,-0.3048 0,-0.0254 -0.0508,-0.0254 -0.1016,0 -0.4572,0.2032 -0.3556,0.2032 -0.8128,0.508 -0.4572,0.2794 -0.9906,0.635 -0.5334,0.3556 -1.016,0.6604 -0.4826,0.2794 -0.889,0.4826 -0.381,0.2032 -0.5588,0.2032 -0.1524,0 -0.2794,-0.1016 -0.1016,-0.1016 -0.1016,-0.254 0,-0.2032 0.1778,-0.4572 0.1778,-0.2794 0.4064,-0.5334 0.2286,-0.2794 0.4572,-0.5334 0.254,-0.254 0.381,-0.4064 0.0254,-0.0254 0.0254,-0.0762 0,-0.0762 -0.1016,-0.0762 -0.0254,0 -0.2794,0.127 -0.2286,0.127 -0.5588,0.3048 -0.3048,0.1524 -0.6604,0.3302 -0.3556,0.1778 -0.5842,0.2794 -0.1778,0.0762 -0.381,0.1524 -0.2032,0.0762 -0.4318,0.1778 -0.0508,0 -0.0762,-0.0508 -0.0508,-0.0762 -0.0508,-0.127 0,-0.127 0.0762,-0.1524 0.2032,-0.0762 0.381,-0.127 0.1778,-0.0762 0.3302,-0.1524 0.6604,-0.2794 1.2192,-0.5842 0.5842,-0.3302 1.0414,-0.6096 0.5334,-0.3048 0.9906,-0.635 0.0508,-0.0254 0.1524,-0.0508 0.1016,-0.0508 0.2032,-0.0508 0.2032,0 0.2032,0.2794 0,0.2032 -0.2286,0.508 -0.2286,0.3048 -0.5334,0.635 -0.2794,0.3048 -0.508,0.6096 -0.2286,0.2794 -0.2286,0.4318 0,0.2032 0.2032,0.2032 0.1524,0 0.6096,-0.2794 0.4572,-0.3048 1.0414,-0.6858 0.5842,-0.381 1.1684,-0.762 0.5842,-0.381 0.9652,-0.5842 0.0508,-0.0508 0.1778,-0.127 0.127,-0.1016 0.3048,-0.2032 0.1778,-0.1016 0.3302,-0.1778 0.1778,-0.0762 0.3048,-0.0762 0.127,0 0.1524,0.1016 0.0254,0.0762 0.0254,0.127 0,0.1016 -0.0508,0.2032 -0.0508,0.1016 -0.1016,0.2032 -0.0762,0.1016 -0.254,0.3556 -0.1778,0.254 -0.3556,0.5588 -0.1524,0.3048 -0.3048,0.635 -0.127,0.3048 -0.127,0.5588 0,0.4572 0.5334,0.4572 0.2794,0 0.6096,-0.0762 0.355604,-0.1016 0.685804,-0.2032 0.3556,-0.127 0.635,-0.2286 0.3048,-0.127 0.4572,-0.1778 0.508,-0.2032 0.762,-0.3048 0.1524,-0.0762 0.3048,-0.127 0.0508,0 0.0762,0.0762 0.0508,0.0508 0.0508,0.1016 z m 15.46861,-15.036799 q 0,0.762 -0.7366,1.9812 -0.7366,1.2192 -1.9558,2.667 -1.1938,1.422399 -2.7686,2.946399 -1.5494,1.524 -3.175,2.921 -1.6256,1.3716 -3.2258,2.4892 -1.5748,1.1176 -2.8448,1.7272 0.0254,0.889 0.4064,1.2446 0.4064,0.3556 0.9398,0.3556 0.508,0 0.9906,-0.2286 0.4826,-0.254 0.8636,-0.635 0.381,-0.381 0.6096,-0.8382 0.2286,-0.4572 0.2286,-0.8636 0,-0.2032 -0.0254,-0.3302 -0.0254,-0.127 -0.0254,-0.254 0,-0.1524 0.1016,-0.1778 0.127,-0.0508 0.254,-0.0508 0.0508,0 0.5334,0 0.508,0 1.1938,0.0254 0.7112,0 1.524,0 0.8128,0 1.524,0 0.2286,0 0.2286,0.1016 0,0.127 -0.2286,0.4064 -0.254,0.3302 -0.5588,0.3302 -0.0254,0 -0.1016,0 -0.0762,0 -0.4572,0 -0.3556,-0.0254 -1.143,-0.0254 -0.7874,0 -2.2098,0 -0.127,0.5842 -0.5334,1.1684 -0.4064,0.5842 -0.9652,1.0414 -0.5334,0.4572 -1.143,0.7366 -0.6096,0.3048 -1.1684,0.3048 -0.889,0 -1.3716,-0.5588 -0.4826,-0.5588 -0.4826,-1.4478 0,-1.2954 0.7366,-2.9718 0.762,-1.7018 1.9812,-3.4798 1.2446,-1.778 2.794,-3.4798 1.5494,-1.727199 3.1496,-3.047999 1.6256,-1.3462 3.1496,-2.159 1.524,-0.8382 2.667,-0.8382 1.2446,0 1.2446,0.9398 z m -1.1938,0.4318 q 0,-0.762 -0.8382,-0.762 -0.8128,0 -2.0574,0.762 -1.2446,0.7366 -2.6416,1.9558 -1.3716,1.2192 -2.7686,2.793999 -1.397,1.5494 -2.54,3.2004 -1.1176,1.6256 -1.8542,3.2004 -0.7366,1.5494 -0.8128,2.794 1.6002,-0.8636 3.2258,-2.0574 1.651,-1.2192 3.1496,-2.54 1.4986,-1.3462 2.794,-2.7432 1.3208,-1.397 2.2606,-2.641599 0.9652,-1.27 1.524,-2.3114 0.5588,-1.0414 0.5588,-1.651 z m 2.84479,14.604999 q 0,0.1016 -0.0762,0.1524 l -1.143,0.4572 q -0.254,0.1016 -0.6604,0.2794 -0.381,0.1524 -0.8382,0.3048 -0.4572,0.1524 -0.889,0.2794 -0.4318,0.1016 -0.762,0.1016 -0.5334,0 -0.5334,-0.3302 0,-0.1016 0.0254,-0.254 0.0508,-0.1778 0.1778,-0.3556 -0.2032,0.1524 -0.5588,0.3556 -0.3556,0.1778 -0.762,0.3556 -0.4064,0.1524 -0.8382,0.2794 -0.4064,0.127 -0.7366,0.127 -0.4826,0 -0.6858,-0.2032 -0.2286,-0.1778 -0.2286,-0.4572 0,-0.4826 0.508,-1.1938 0.508,-0.7112 1.2954,-1.3462 0.7874,-0.6604 1.7272,-1.1176 0.9398,-0.4572 1.8034,-0.4572 0.4318,0 0.6096,0.1524 0.1778,0.1524 0.1778,0.4318 0,0.4064 -0.381,0.7366 -0.3556,0.3302 -0.6858,0.5334 -0.1016,0.0508 -0.1524,0.0508 -0.0508,0 -0.1524,-0.0508 -0.0762,-0.0762 -0.0762,-0.1778 0,-0.127 0.2032,-0.381 0.1016,-0.1016 0.2286,-0.2794 0.1524,-0.2032 0.1524,-0.3302 0,-0.1016 -0.1016,-0.1524 -0.0762,-0.0762 -0.3556,-0.0762 -0.4318,0 -1.0668,0.3302 -0.635,0.3048 -1.2192,0.7874 -0.5842,0.4572 -1.016,0.9652 -0.4064,0.508 -0.4064,0.889 0,0.2794 0.2286,0.4318 0.2286,0.127 0.508,0.127 0.2794,0 0.635,-0.127 0.3556,-0.127 0.6858,-0.2794 0.3302,-0.1524 0.5842,-0.3048 0.2794,-0.1778 0.3556,-0.254 0.0508,-0.0508 0.1524,-0.1524 0.1016,-0.1016 0.2032,-0.1016 0.0508,0 0.1524,0.0508 0.1016,0.0508 0.1016,0.1778 -0.127,0.2032 -0.1778,0.3556 -0.0508,0.1524 -0.0508,0.2794 0,0.3302 0.4572,0.3302 0.2794,0 0.6096,-0.0762 0.3556,-0.1016 0.6858,-0.2032 0.3556,-0.127 0.635,-0.2286 0.3048,-0.127 0.4572,-0.1778 0.508,-0.2032 0.762,-0.3048 0.1524,-0.0762 0.3048,-0.127 0.0508,0 0.0762,0.0762 0.0508,0.0508 0.0508,0.1016 z m 18.1864,-14.681199 q 0,0.7366 -0.635,1.8796 -0.6096,1.143 -1.651,2.514599 -1.0414,1.3462 -2.4384,2.8194 -1.3716,1.4732 -2.8956,2.8702 -1.524,1.3716 -3.0734,2.5908 -1.5494,1.1938 -2.9718,2.032 -0.3556,1.651 -0.3556,3.1496 0,0.3556 -0.1016,0.4826 -0.0762,0.1524 -0.3556,0.1524 l -0.2286,-0.0254 q -0.2032,-0.0254 -0.2794,-0.2286 -0.0508,-0.1778 -0.0508,-0.4318 0,-1.2446 0.254,-2.4892 -0.7366,0.3556 -1.397,0.5588 -0.635,0.2032 -1.143,0.2032 -0.508,0 -0.7874,-0.2032 -0.2794,-0.2032 -0.4064,-0.4572 -0.1524,-0.2794 -0.1778,-0.635 0,-0.6604 0.4826,-1.1684 0.508,-0.5334 1.2192,-0.889 0.7112,-0.3556 1.4732,-0.5334 0.7874,-0.2032 1.3462,-0.2032 0.2032,0 0.2032,0.1778 0,0.1778 -0.1778,0.1778 l -0.1524,-0.0254 q -0.5334,0 -1.143,0.1778 -0.6096,0.1778 -1.143,0.4826 -0.508,0.3048 -0.8382,0.7112 -0.3302,0.4064 -0.3302,0.8636 0,0.3302 0.1778,0.5334 0.1778,0.1778 0.381,0.254 0.254,0.1016 0.5588,0.1016 0.8128,0 1.9812,-0.6096 0.4572,-1.8796 1.3462,-3.81 0.9144,-1.9558 2.0828,-3.7846 1.1684,-1.8288 2.5146,-3.428999 1.3716,-1.6256 2.7178,-2.8194 1.3462,-1.1938 2.5908,-1.8796 1.27,-0.7112 2.2606,-0.7112 0.6096,0 0.8636,0.4064 0.2794,0.381 0.2794,1.1938 z m -1.1176,0.0762 q 0,-0.4826 -0.2794,-0.7112 -0.2794,-0.2286 -0.7366,-0.2286 -0.6604,0 -1.6256,0.6096 -0.9652,0.5842 -2.0828,1.651 -1.0922,1.0414 -2.2606,2.4892 -1.1684,1.422399 -2.2098,3.098799 -1.0414,1.6764 -1.905,3.5306 -0.8382,1.8288 -1.3208,3.7084 1.2192,-0.7366 2.6162,-1.8034 1.397,-1.0668 2.7686,-2.3114 1.3716,-1.27 2.6416,-2.6416 1.2954,-1.3716 2.2606,-2.6924 0.9652,-1.320799 1.5494,-2.539999 0.5842,-1.2192 0.5842,-2.159 z" 
    fill="#000000" 
    style="font-weight:500;font-size:4.9389px;line-height:0px;font-family:'Avenir Next';letter-spacing:3.96875px" />
  </g>
</svg>
