<?xml version="1.0" encoding="UTF-8" standalone="no"?>
<!-- Created with Inkscape (http://www.inkscape.org/) -->

<svg
   width="100.1532mm"
   height="100.72522mm"
   viewBox="0 0 100.1532 100.72522"
   version="1.1"
   id="svg1"
   inkscape:version="1.4.2 (ebf0e940, 2025-05-08)"
   sodipodi:docname="fuel_level.svg"
   xml:space="preserve"
   xmlns:inkscape="http://www.inkscape.org/namespaces/inkscape"
   xmlns:sodipodi="http://sodipodi.sourceforge.net/DTD/sodipodi-0.dtd"
   xmlns="http://www.w3.org/2000/svg"
   xmlns:svg="http://www.w3.org/2000/svg"><sodipodi:namedview
     id="namedview1"
     pagecolor="#ffffff"
     bordercolor="#000000"
     borderopacity="0.25"
     inkscape:showpageshadow="2"
     inkscape:pageopacity="0.0"
     inkscape:pagecheckerboard="0"
     inkscape:deskcolor="#d1d1d1"
     inkscape:document-units="mm"
     showgrid="false"
     inkscape:zoom="2.0075491"
     inkscape:cx="254.78829"
     inkscape:cy="237.3541"
     inkscape:window-width="2112"
     inkscape:window-height="1326"
     inkscape:window-x="1447"
     inkscape:window-y="25"
     inkscape:window-maximized="0"
     inkscape:current-layer="layer1-0"><inkscape:grid
       id="grid1"
       units="mm"
       originx="-34.696755"
       originy="-39.187353"
       spacingx="0.99999998"
       spacingy="1"
       empcolor="#0099e5"
       empopacity="0.30196078"
       color="#0099e5"
       opacity="0.14901961"
       empspacing="5"
       enabled="true"
       visible="false" /><inkscape:page
       x="0"
       y="0"
       width="100.1532"
       height="100.72522"
       id="page1"
       margin="0"
       bleed="0" /><inkscape:page
       x="110.1532"
       y="0"
       width="76.830536"
       height="83.253159"
       id="page2"
       margin="0"
       bleed="0" /></sodipodi:namedview><defs
     id="defs1"><inkscape:path-effect
       effect="attach_path"
       id="path-effect24"
       is_visible="true"
       lpeversion="1"
       startpath=""
       startposition="0"
       startcurvestart="0,0 , 20,0"
       startcurveend="0,0 , 20,0"
       endpath=""
       endposition="0"
       endcurvestart="0,0 , 20,0"
       endcurveend="0,0 , 20,0" /></defs><ellipse
     style="fill:#939393;fill-opacity:1;stroke:none;stroke-width:0.307461;stroke-dasharray:none;stroke-opacity:1"
     id="path3"
     cx="50.090706"
     cy="49.879372"
     rx="45.964344"
     ry="46.487183" /><path
     style="fill:#55d400;fill-opacity:1;stroke:none;stroke-width:1.02339;stroke-dasharray:none;stroke-opacity:1"
     d="M 27.484409,24.897974 49.890479,51.517389 8.2021263,68.896136 3.8417903,51.208939 49.818154,51.37274"
     id="path18"
     sodipodi:nodetypes="ccccc" /><g
     inkscape:label="Слой 1"
     inkscape:groupmode="layer"
     id="layer1"
     transform="translate(-34.696754,-39.187354)"><rect
       style="fill:#ffffff;fill-opacity:1;stroke:none;stroke-width:0.303502;stroke-dasharray:none;stroke-opacity:1"
       id="rect9"
       width="2.7688067"
       height="7.321547"
       x="83.446098"
       y="45.424351" /><rect
       style="fill:#ffffff;fill-opacity:1;stroke:none;stroke-width:0.290863;stroke-dasharray:none;stroke-opacity:1"
       id="rect11"
       width="2.4566727"
       height="7.5788741"
       x="121.99589"
       y="-67.146721"
       transform="matrix(0.53669893,0.84377382,-0.80721559,0.59025672,0,0)"
       inkscape:transform-center-x="6.3685641"
       inkscape:transform-center-y="0.55475455" /><rect
       style="fill:#ffffff;fill-opacity:1;stroke:none;stroke-width:0.268317;stroke-dasharray:none;stroke-opacity:1"
       id="rect12"
       width="2.4936943"
       height="7.6016035"
       x="113.57241"
       y="-6.9304357"
       transform="matrix(0.39441744,0.91893138,-0.92493668,0.38012121,0,0)"
       inkscape:transform-center-x="-8.628756"
       inkscape:transform-center-y="-14.808092" /><rect
       style="fill:#ffffff;fill-opacity:1;stroke:none;stroke-width:0.290568;stroke-dasharray:none;stroke-opacity:1"
       id="rect13"
       width="2.4371932"
       height="7.6239314"
       x="-21.789286"
       y="77.487633"
       transform="matrix(0.58369351,-0.81197407,0.78839807,0.61516541,0,0)"
       inkscape:transform-center-x="-3.1114154"
       inkscape:transform-center-y="-0.47572344" /><rect
       style="fill:#ffffff;fill-opacity:1;stroke:none;stroke-width:0.299461;stroke-dasharray:none;stroke-opacity:1"
       id="rect14"
       width="2.5461628"
       height="7.7511582"
       x="-54.003075"
       y="144.5347"
       transform="matrix(0.32224582,-0.94665603,0.93120469,0.36449666,0,0)"
       inkscape:transform-center-x="3.8115586"
       inkscape:transform-center-y="-4.2828914" /><rect
       style="fill:#ffffff;fill-opacity:1;stroke:none;stroke-width:0.154706;stroke-dasharray:none;stroke-opacity:1"
       id="rect15"
       width="1.3553698"
       height="3.8862438"
       x="96.763641"
       y="114.48126"
       transform="matrix(0.10172384,0.99481268,0.99460731,-0.10371258,0,0)" /><rect
       style="fill:#ffffff;fill-opacity:1;stroke:none;stroke-width:0.154709;stroke-dasharray:none;stroke-opacity:1"
       id="rect16"
       width="1.3692682"
       height="4.0839257"
       x="24.29188"
       y="77.19207"
       transform="matrix(0.84023956,-0.54221535,0.53473379,0.84502057,0,0)"
       inkscape:transform-center-x="0.64241809"
       inkscape:transform-center-y="1.1465223" /><rect
       style="fill:#ffffff;fill-opacity:1;stroke:none;stroke-width:0.15471;stroke-dasharray:none;stroke-opacity:1"
       id="rect17"
       width="1.3462112"
       height="3.9128304"
       x="117.31925"
       y="-15.220353"
       transform="matrix(0.83748868,0.54645468,-0.53896291,0.8423295,0,0)" /><rect
       style="fill:#ffffff;fill-opacity:1;stroke:none;stroke-width:0.154707;stroke-dasharray:none;stroke-opacity:1"
       id="rect18"
       width="1.3553985"
       height="3.8861599"
       x="-81.057426"
       y="49.257053"
       transform="matrix(0.09052749,-0.99589396,0.99573112,0.09230129,0,0)"
       inkscape:transform-center-x="0.7318472"
       inkscape:transform-center-y="-0.08565944" /></g><g
     inkscape:groupmode="layer"
     id="layer2"
     inkscape:label="Слой 2"
     transform="translate(-34.696754,-39.187354)" /><g
     inkscape:groupmode="layer"
     id="layer3"
     inkscape:label="Слой 3"
     transform="translate(-34.696754,-39.187354)" /><path
     style="fill:#d64545;fill-opacity:1;stroke:none;stroke-width:0.105651;stroke-dasharray:none;stroke-opacity:1"
     d="m 13.921829,51.224016 0.932192,-1.231698 c 11.740457,-0.125498 23.511405,-0.17509 35.339864,-0.34562 l -0.04581,2.402508 -35.276136,0.457078 z"
     id="path24"
     inkscape:transform-center-x="17.983456"
     inkscape:transform-center-y="0.030462234"
     sodipodi:nodetypes="cccccc" /><ellipse
     style="fill:none;fill-opacity:1;stroke:#555555;stroke-width:5.11062;stroke-dasharray:none;stroke-opacity:1"
     id="path22"
     cx="50.076599"
     cy="50.36261"
     rx="47.52129"
     ry="47.807301" /><ellipse
     style="fill:#555555;fill-opacity:1;stroke:#555555;stroke-width:3.99083;stroke-dasharray:none;stroke-opacity:1"
     id="path23"
     cx="50.314796"
     cy="50.813385"
     rx="6.6007118"
     ry="6.4105659" /><text
     xml:space="preserve"
     style="font-style:normal;font-variant:normal;font-weight:bold;font-stretch:normal;font-size:10.9729px;line-height:1.25;font-family:Arial;-inkscape-font-specification:'Arial Bold';letter-spacing:0px;stroke-width:0.228601"
     x="31.008997"
     y="90.197418"
     id="text23"
     transform="scale(1.0408755,0.9607297)"><tspan
       sodipodi:role="line"
       id="tspan23"
       style="font-style:normal;font-variant:normal;font-weight:normal;font-stretch:normal;font-family:Arial;-inkscape-font-specification:Arial;fill:#ffffff;stroke-width:0.228601"
       x="31.008997"
       y="90.197418">$<tspan
   style="font-style:normal;font-variant:normal;font-weight:normal;font-stretch:normal;font-size:16.4593px;font-family:Arial;-inkscape-font-specification:Arial;fill:#ffffff;stroke-width:0.228601"
   id="tspan24">100</tspan></tspan></text><g
     inkscape:label="Слой 1"
     inkscape:groupmode="layer"
     id="layer1-0"
     transform="translate(106.90843,-60.75236)"><path
       id="path3-2"
       style="fill:#ffffff;fill-opacity:1;stroke:none;stroke-width:0.0512003;stroke-dasharray:none;stroke-opacity:1"
       d="m -49.903802,101.78459 c -0.391733,-0.0517 -0.702149,-0.22665 -0.996622,-0.56173 -0.197563,-0.22479 -0.325748,-0.46066 -0.419668,-0.77219 -0.07556,-0.25065 -0.08072,-0.29863 -0.09182,-0.856021 -0.0099,-0.49857 -0.01962,-0.60841 -0.06218,-0.70574 -0.120964,-0.27658 -0.306576,-0.37801 -0.662145,-0.36187 -0.211319,0.01 -0.249885,0.0203 -0.310396,0.0863 l -9.71e-4,-1.48808 c 0.06267,0.0683 0.09778,0.0759 0.435322,0.0948 0.292545,0.0164 0.407084,0.0366 0.563642,0.0999 0.504776,0.20378 0.877362,0.63058 1.070327,1.22609 0.06118,0.18882 0.06965,0.27092 0.08573,0.83107 0.01075,0.37463 0.031,0.658591 0.05097,0.714781 0.08045,0.22655 0.298352,0.38711 0.525298,0.38711 0.27039,0 0.494971,-0.2085 0.548833,-0.509534 0.01887,-0.105457 0.02577,-1.196427 0.02094,-3.311657 -0.0067,-2.95739 -0.01016,-3.15945 -0.05458,-3.23528 -0.05091,-0.087 -0.130105,-0.13896 -0.378699,-0.24881 -0.213678,-0.0944 -0.469933,-0.37311 -0.57855,-0.62918 -0.116721,-0.27517 -0.133581,-0.45902 -0.133754,-1.45842 -1.66e-4,-0.95719 -0.0092,-1.03351 -0.141808,-1.19725 -0.0323,-0.0399 -0.234113,-0.2247 -0.44847,-0.4107 -0.490388,-0.42551 -0.579342,-0.58777 -0.508911,-0.92836 0.081,-0.39171 0.483079,-0.62162 0.778598,-0.4452 0.181377,0.10828 2.023026,1.73814 2.151833,1.90436 0.167668,0.2164 0.267446,0.41896 0.358854,0.72852 l 0.07342,0.24862 v 4.56843 c 0,4.337577 -0.0025,4.578641 -0.04916,4.770451 -0.131021,0.53835 -0.486451,1.03695 -0.903352,1.26721 -0.320904,0.17724 -0.598619,0.23514 -0.922714,0.19238 z m -6.824474,-15.464151 c -2.332724,0 -4.210738,0.53767 -4.210738,0.73032 v 14.988551 c 0,0.19265 1.878014,0.12717 4.210738,0.12717 2.332725,0 4.271263,0.16874 4.271263,-0.0583 0,-4.169731 -0.02535,-5.204041 0,-14.885161 5.04e-4,-0.19266 -1.938538,-0.90252 -4.271263,-0.90252 z m -1.746261,1.89745 h 3.674269 c 0.759621,0 1.371132,0.69539 1.371132,1.55908 v 2.6967 c 0,0.86368 -0.611511,1.55899 -1.371132,1.55899 h -3.674269 c -0.75962,0 -1.350777,-0.69562 -1.371219,-1.55899 l -0.06052,-2.55896 c -0.02045,-0.86339 0.672123,-1.69682 1.431743,-1.69682 z" /></g></svg>
